/* XPM */
static char *result[] = {
/* columns rows colors chars-per-pixel */
"100 100 3 1 ",
"  c #B0905D",
". c #A6845D",
"X c #BD9964",
/* pixels */
"                                                                                                    ",
"                                                                                                    ",
"    ..  X           ..  X           ..  X           ..  X           ..  X           ..  X           ",
"    ..              ..              ..              ..              ..              ..              ",
"            ..              ..              ..              ..              ..              ..      ",
"            ..              ..              ..              ..              ..              ..      ",
"                                                                                                    ",
"          X               X               X               X               X               X         ",
"                                                                                                    ",
"    XX              XX              XX              XX              XX              XX              ",
"    XX              XX              XX              XX              XX              XX              ",
"         ..              ..              ..              ..              ..              ..         ",
"         ..   ..         ..   ..         ..   ..         ..   ..         ..   ..         ..   ..    ",
"       .      ..       .      ..       .      ..       .      ..       .      ..       .      ..    ",
"                                                                                                    ",
"                                                                                                    ",
"                                                                                                    ",
"                                                                                                    ",
"    ..  X           ..  X           ..  X           ..  X           ..  X           ..  X           ",
"    ..              ..              ..              ..              ..              ..              ",
"            ..              ..              ..              ..              ..              ..      ",
"            ..              ..              ..              ..              ..              ..      ",
"                                                                                                    ",
"          X               X               X               X               X               X         ",
"                                                                                                    ",
"    XX              XX              XX              XX              XX              XX              ",
"    XX              XX              XX              XX              XX              XX              ",
"         ..              ..              ..              ..              ..              ..         ",
"         ..   ..         ..   ..         ..   ..         ..   ..         ..   ..         ..   ..    ",
"       .      ..       .      ..       .      ..       .      ..       .      ..       .      ..    ",
"                                                                                                    ",
"                                                                                                    ",
"                                                                                                    ",
"                                                                                                    ",
"    ..  X           ..  X           ..  X           ..  X           ..  X           ..  X           ",
"    ..              ..              ..              ..              ..              ..              ",
"            ..              ..              ..              ..              ..              ..      ",
"            ..              ..              ..              ..              ..              ..      ",
"                                                                                                    ",
"          X               X               X               X               X               X         ",
"                                                                                                    ",
"    XX              XX              XX              XX              XX              XX              ",
"    XX              XX              XX              XX              XX              XX              ",
"         ..              ..              ..              ..              ..              ..         ",
"         ..   ..         ..   ..         ..   ..         ..   ..         ..   ..         ..   ..    ",
"       .      ..       .      ..       .      ..       .      ..       .      ..       .      ..    ",
"                                                                                                    ",
"                                                                                                    ",
"                                                                                                    ",
"                                                                                                    ",
"    ..  X           ..  X           ..  X           ..  X           ..  X           ..  X           ",
"    ..              ..              ..              ..              ..              ..              ",
"            ..              ..              ..              ..              ..              ..      ",
"            ..              ..              ..              ..              ..              ..      ",
"                                                                                                    ",
"          X               X               X               X               X               X         ",
"                                                                                                    ",
"    XX              XX              XX              XX              XX              XX              ",
"    XX              XX              XX              XX              XX              XX              ",
"         ..              ..              ..              ..              ..              ..         ",
"         ..   ..         ..   ..         ..   ..         ..   ..         ..   ..         ..   ..    ",
"       .      ..       .      ..       .      ..       .      ..       .      ..       .      ..    ",
"                                                                                                    ",
"                                                                                                    ",
"                                                                                                    ",
"                                                                                                    ",
"    ..  X           ..  X           ..  X           ..  X           ..  X           ..  X           ",
"    ..              ..              ..              ..              ..              ..              ",
"            ..              ..              ..              ..              ..              ..      ",
"            ..              ..              ..              ..              ..              ..      ",
"                                                                                                    ",
"          X               X               X               X               X               X         ",
"                                                                                                    ",
"    XX              XX              XX              XX              XX              XX              ",
"    XX              XX              XX              XX              XX              XX              ",
"         ..              ..              ..              ..              ..              ..         ",
"         ..   ..         ..   ..         ..   ..         ..   ..         ..   ..         ..   ..    ",
"       .      ..       .      ..       .      ..       .      ..       .      ..       .      ..    ",
"                                                                                                    ",
"                                                                                                    ",
"                                                                                                    ",
"                                                                                                    ",
"    ..  X           ..  X           ..  X           ..  X           ..  X           ..  X           ",
"    ..              ..              ..              ..              ..              ..              ",
"            ..              ..              ..              ..              ..              ..      ",
"            ..              ..              ..              ..              ..              ..      ",
"                                                                                                    ",
"          X               X               X               X               X               X         ",
"                                                                                                    ",
"    XX              XX              XX              XX              XX              XX              ",
"    XX              XX              XX              XX              XX              XX              ",
"         ..              ..              ..              ..              ..              ..         ",
"         ..   ..         ..   ..         ..   ..         ..   ..         ..   ..         ..   ..    ",
"       .      ..       .      ..       .      ..       .      ..       .      ..       .      ..    ",
"                                                                                                    ",
"                                                                                                    ",
"                                                                                                    ",
"                                                                                                    ",
"    ..  X           ..  X           ..  X           ..  X           ..  X           ..  X           ",
"    ..              ..              ..              ..              ..              ..              "
};
